<?xml version="1.0" standalone="no"?>
<!DOCTYPE svg PUBLIC "-//W3C//DTD SVG 20010904//EN"
 "http://www.w3.org/TR/2001/REC-SVG-20010904/DTD/svg10.dtd">
<svg version="1.0" xmlns="http://www.w3.org/2000/svg"
 width="2256.000000pt" height="2165.000000pt" viewBox="0 0 2256.000000 2165.000000"
 preserveAspectRatio="xMidYMid meet">

<g transform="translate(0.000000,2165.000000) scale(0.100000,-0.100000)"
fill="#000000" stroke="none">
<path d="M10665 21629 c-1614 -86 -3165 -493 -4580 -1201 -251 -126 -291 -147
-495 -261 -1348 -755 -2543 -1798 -3461 -3022 -1195 -1591 -1917 -3465 -2083
-5410 -50 -576 -50 -1244 0 -1820 299 -3493 2380 -6659 5544 -8432 204 -114
244 -135 495 -261 1425 -714 2971 -1117 4605 -1202 251 -13 929 -13 1180 0
1634 85 3180 488 4605 1202 251 126 291 147 495 261 1348 755 2543 1798 3461
3022 1195 1591 1917 3465 2083 5410 50 576 50 1244 0 1820 -299 3493 -2380
6659 -5544 8432 -204 114 -244 135 -495 261 -1425 714 -2971 1117 -4605 1202
-223 11 -982 11 -1205 -1z m1195 -269 c2605 -136 5005 -1113 6930 -2823 205
-182 745 -729 923 -934 1257 -1450 2058 -3093 2401 -4923 116 -619 166 -1178
166 -1855 0 -677 -50 -1236 -166 -1855 -343 -1830 -1144 -3473 -2401 -4923
-178 -205 -718 -752 -923 -934 -1925 -1710 -4325 -2687 -6930 -2823 -251 -13
-909 -13 -1160 0 -2605 136 -5005 1113 -6930 2823 -205 182 -745 729 -923 934
-1476 1703 -2336 3701 -2531 5878 -50 555 -50 1245 0 1800 180 2017 944 3907
2226 5512 252 315 452 537 778 864 406 407 681 651 1075 953 1801 1383 3981
2184 6275 2305 228 12 965 12 1190 1z"/>
<path d="M7616 16725 l-21 -11 -3 -1453 c-1 -1066 1 -1457 9 -1467 16 -19
7338 -21 7357 -2 19 19 17 2911 -2 2927 -9 8 -214 11 -727 11 -665 1 -715 0
-726 -17 -10 -13 -13 -121 -13 -474 0 -385 -2 -458 -14 -468 -11 -9 -131 -12
-467 -12 -432 0 -453 1 -472 19 -18 19 -19 38 -18 470 l2 450 -23 16 c-20 14
-143 16 -1218 16 -1066 0 -1198 -2 -1218 -16 l-22 -15 0 -453 c0 -432 -1 -454
-19 -470 -17 -16 -58 -17 -471 -17 -384 0 -455 2 -468 14 -12 13 -14 82 -13
468 2 358 -1 458 -11 472 -12 16 -59 17 -717 20 -468 1 -712 -1 -725 -8z"/>
<path d="M8110 13260 c-19 -19 -20 -33 -20 -220 0 -187 1 -201 20 -220 20 -20
33 -20 3168 -20 l3148 0 22 20 c21 20 22 28 22 220 0 187 -1 201 -20 220 -20
20 -33 20 -3170 20 -3137 0 -3150 0 -3170 -20z"/>
<path d="M9072 12283 c-5 -10 -12 -67 -16 -128 -3 -60 -13 -151 -21 -201 -22
-138 -34 -259 -45 -484 -6 -113 -18 -250 -26 -305 -28 -191 -34 -248 -44 -458
-11 -218 -18 -290 -45 -462 -8 -55 -22 -219 -30 -363 -8 -145 -20 -294 -25
-330 -30 -195 -40 -297 -50 -497 -6 -121 -17 -265 -25 -320 -8 -55 -19 -129
-24 -165 -6 -36 -15 -153 -20 -260 -15 -275 -21 -340 -42 -469 -10 -63 -23
-196 -29 -295 -17 -302 -30 -448 -45 -521 -17 -79 -14 -94 17 -115 20 -13 337
-15 2653 -18 1869 -2 2641 0 2668 8 57 17 68 41 52 119 -15 71 -29 228 -45
507 -6 99 -19 232 -29 295 -21 129 -27 195 -41 464 -6 105 -21 267 -35 360
-13 94 -29 269 -35 390 -10 200 -20 303 -50 497 -5 36 -17 185 -25 330 -8 144
-20 292 -25 328 -28 180 -40 294 -50 495 -6 121 -17 265 -26 320 -8 55 -19
129 -24 165 -5 36 -14 162 -20 280 -11 223 -21 323 -46 475 -8 50 -17 146 -20
215 -4 69 -11 133 -16 143 -8 16 -124 17 -2208 17 -2084 0 -2200 -1 -2208 -17z"/>
<path d="M8133 6392 c-42 -6 -45 -21 -44 -233 2 -209 11 -259 46 -259 8 0
1424 0 3145 0 1722 0 3137 0 3146 0 34 0 44 61 44 268 0 156 -3 202 -14 211
-10 8 -835 12 -3157 14 -1729 1 -3154 1 -3166 -1z"/>
<path d="M7154 5413 c-12 -2 -30 -13 -40 -25 -18 -19 -19 -48 -22 -447 -2
-276 1 -439 7 -462 7 -23 20 -40 36 -47 20 -9 1033 -12 4150 -12 l4124 0 28
24 28 24 3 426 c1 234 -1 440 -6 458 -5 23 -18 38 -42 50 -33 17 -250 18
-4140 17 -2258 -1 -4115 -4 -4126 -6z"/>
</g>
</svg>
